<svg viewBox="0 0 96 96" xmlns="http://www.w3.org/2000/svg" xmlns:xlink="http://www.w3.org/1999/xlink" id="Icons_ArrowDown_M" overflow="hidden"><style>
.MsftOfcThm_Text1_Fill_v2 {
 fill:#000000; 
}
.MsftOfcThm_Text1_Stroke_v2 {
 stroke:#000000; 
}
</style>
<g id="Icons"><path d="M48 6C47.4477 6 47 6.44772 47 7L47 86.562C46.9999 86.5675 46.9954 86.5719 46.9899 86.5719 46.9873 86.5718 46.9848 86.5708 46.983 86.569L33.707 73.293C33.3097 72.9093 32.6767 72.9203 32.293 73.3176 31.9187 73.7051 31.9187 74.3195 32.293 74.707L47.293 89.707C47.6835 90.0974 48.3165 90.0974 48.707 89.707L63.707 74.707C64.1043 74.3233 64.1153 73.6903 63.7316 73.293 63.3479 72.8957 62.7148 72.8847 62.3176 73.2684 62.3092 73.2765 62.301 73.2847 62.293 73.293L49.017 86.569C49.0131 86.5729 49.0067 86.5728 49.0029 86.5689 49.0011 86.567 49 86.5646 49 86.562L49 7C49 6.44772 48.5523 6 48 6Z" class="MsftOfcThm_Text1_Fill_v2 MsftOfcThm_Text1_Stroke_v2" stroke="#000000"/></g></svg>